<?xml version="1.0" encoding="UTF-8" standalone="no"?>
<!-- Created with Inkscape (http://www.inkscape.org/) -->

<svg
   width="103.49337mm"
   height="124.20985mm"
   viewBox="0 0 103.49337 124.20985"
   version="1.1"
   id="svg5"
   inkscape:version="1.1.2 (0a00cf5339, 2022-02-04)"
   sodipodi:docname="icon_v03.2.svg"
   inkscape:export-filename="/home/holterma/software/redvypr.git/redvypr/icon/logo_v03.2.png"
   inkscape:export-xdpi="99.977501"
   inkscape:export-ydpi="99.977501"
   xmlns:inkscape="http://www.inkscape.org/namespaces/inkscape"
   xmlns:sodipodi="http://sodipodi.sourceforge.net/DTD/sodipodi-0.dtd"
   xmlns="http://www.w3.org/2000/svg"
   xmlns:svg="http://www.w3.org/2000/svg">
  <sodipodi:namedview
     id="namedview7"
     pagecolor="#ffffff"
     bordercolor="#666666"
     borderopacity="1.0"
     inkscape:pageshadow="2"
     inkscape:pageopacity="0.0"
     inkscape:pagecheckerboard="0"
     inkscape:document-units="mm"
     showgrid="false"
     inkscape:zoom="2.6044095"
     inkscape:cx="195.43778"
     inkscape:cy="432.91963"
     inkscape:window-width="1640"
     inkscape:window-height="875"
     inkscape:window-x="0"
     inkscape:window-y="46"
     inkscape:window-maximized="0"
     inkscape:current-layer="layer1"
     fit-margin-top="0"
     fit-margin-left="0"
     fit-margin-right="0"
     fit-margin-bottom="0" />
  <defs
     id="defs2" />
  <g
     inkscape:label="Ebene 1"
     inkscape:groupmode="layer"
     id="layer1"
     style="display:inline"
     transform="translate(-7.4852345,-2.791324)">
    <path
       style="display:inline;fill:#aa0000;fill-opacity:1;stroke:#ffffff;stroke-width:0.7;stroke-linecap:butt;stroke-linejoin:miter;stroke-miterlimit:4;stroke-dasharray:none;stroke-opacity:1"
       d="m 25.565403,51.693172 c 0,0 -9.99524,29.41246 -3.08988,41.40783 6.86191,11.919888 23.40023,18.910808 37.124493,18.008328 13.97573,-0.91901 31.477098,-9.59572 35.077808,-23.130878 2.82379,-10.6147 -4.83642,-24.91802 -14.859288,-29.41109 -10.48995,-4.70245 -31.075913,-1.93008 -33.326963,8.87026 -3.43296,16.47108 3.17882,27.944238 3.17882,27.944238 0,0 4.760593,0.948244 7.175311,1.018222 2.178139,0.06312 6.514645,-0.542104 6.514645,-0.542104 0,0 -5.730736,-16.305566 -2.598803,-21.650476 4.74027,-8.08969 12.28604,-4.98087 16.5977,-1.47916 3.00873,2.44354 2.73509,7.92159 1.36549,11.54754 -1.93133,5.11307 -6.91555,9.58715 -12.21006,10.94421 -9.179463,2.35282 -22.084463,1.19062 -27.686693,-6.45224 -6.92497,-9.44741 2.69518,-35.03733 2.69518,-35.03733 z"
       id="path2305-5-7"
       sodipodi:nodetypes="caaaascacsaaaacc" />
    <path
       style="display:inline;fill:#aa0000;fill-opacity:1;stroke:#ffffff;stroke-width:0.7;stroke-linecap:butt;stroke-linejoin:miter;stroke-miterlimit:4;stroke-dasharray:none;stroke-opacity:1"
       d="m 54.890714,111.31984 c 0,0 4.780663,0.12357 7.146683,-0.15881 1.72187,-0.20551 5.08208,-1.1117 5.08208,-1.1117 2.75278,6.88198 4.07625,8.8407 10.16415,15.8815 -16.47639,-2.00595 -22.392913,-14.61099 -22.392913,-14.61099 z"
       id="path4047-7-7"
       sodipodi:nodetypes="caccc" />
    <path
       style="display:inline;fill:#000000;fill-opacity:1;stroke:#ffffff;stroke-width:0.7;stroke-linecap:butt;stroke-linejoin:miter;stroke-miterlimit:4;stroke-dasharray:none;stroke-opacity:1"
       d="m 55.331423,45.015972 c 0,0 -1.86985,9.14978 0.23813,12.89243 3.22698,5.72946 16.668236,10.50495 16.668236,10.50495 l -3.809888,-5.01372 8.810358,0.23874 c 0,0 -12.822258,-2.83204 -15.953894,-7.87871 -1.928809,-3.1083 0,-10.98244 0,-10.98244 z"
       id="path3690-9-3-4"
       sodipodi:nodetypes="cacccacc" />
    <path
       id="path31-7-1-3"
       style="display:inline;fill:#aa0000;fill-opacity:1;fill-rule:evenodd;stroke:#ffffff;stroke-width:0.7;stroke-miterlimit:4;stroke-dasharray:none;stroke-opacity:1"
       d="m 59.575093,22.767552 c -6.52598,1e-5 -14.33107,-3.96592 -19.98581,-2.49975 -5.65475,1.46615 -23.81423,-1.39474 -30.1802995,-15.8663798 -6.32808,11.0929898 8.6098795,17.0714398 6.2180995,20.5377998 -2.39175,3.46639 -3.71436,7.27747 -3.71438,11.27791 9e-5,16.00179 18.31842,18.08133 44.42234,18.08139 26.103913,-6e-5 50.108327,-2.0796 50.108417,-18.08139 -2e-5,-4.00044 -1.32264,-7.81152 -3.7144,-11.27791 -2.39177,-3.46636 13.83137,-12.85783 5.5021,-21.5126298 -5.76297,14.6069198 -24.206528,17.9092998 -29.861273,16.4431498 -5.654746,-1.46616 -12.268817,2.89782 -18.794794,2.89781 z"
       sodipodi:nodetypes="cscccccscsc" />
    <ellipse
       style="display:inline;fill:#ffffff;fill-opacity:1;stroke:#000000;stroke-width:0.263197;stroke-opacity:1"
       id="path2836-5-8-0"
       cy="28.858717"
       cx="47.961906"
       ry="5.3348966"
       rx="9.4403343"
       transform="matrix(0.97780567,0.20951388,-0.20845606,0.97803173,0,0)" />
    <ellipse
       style="display:inline;fill:#ffffff;fill-opacity:1;stroke:#000000;stroke-width:0.257088;stroke-opacity:1"
       id="path2836-0-3-9-3"
       cy="54.013859"
       cx="-66.618042"
       ry="5.32445"
       rx="9.0248461"
       transform="matrix(-0.97568904,0.21915954,0.19924024,0.97995068,0,0)" />
    <path
       style="display:inline;fill:#000000;fill-opacity:1;stroke:#000000;stroke-width:0.195353px;stroke-linecap:butt;stroke-linejoin:miter;stroke-opacity:1"
       d="m 40.778193,32.818752 c 0,0 -4.98471,3.54188 -4.87016,6.10286 0.0944,2.10998 4.44667,4.67888 4.44667,4.67888 0,0 -1.83674,-2.65357 -1.90572,-4.1703 -0.10564,-2.32441 2.32921,-6.61144 2.32921,-6.61144 z"
       id="path1689-8-6-0"
       sodipodi:nodetypes="cacac" />
    <path
       style="display:inline;fill:#000000;fill-opacity:1;stroke:#000000;stroke-width:0.195353px;stroke-linecap:butt;stroke-linejoin:miter;stroke-opacity:1"
       d="m 75.763739,32.954802 c 0,0 4.984715,3.54188 4.870168,6.10286 -0.09438,2.10998 -4.446668,4.67887 -4.446668,4.67887 0,0 1.836739,-2.65356 1.905717,-4.1703 0.105784,-2.3244 -2.329217,-6.61143 -2.329217,-6.61143 z"
       id="path1689-1-8-4-9"
       sodipodi:nodetypes="cacac" />
  </g>
</svg>
