<?xml version="1.0" encoding="UTF-8" standalone="no"?>
<!-- Created with Inkscape (http://www.inkscape.org/) -->

<svg
   width="210mm"
   height="297mm"
   viewBox="0 0 210 297"
   version="1.1"
   id="svg6081"
   inkscape:version="1.1.2 (b8e25be8, 2022-02-05)"
   sodipodi:docname="Zeichnung.svg"
   xmlns:inkscape="http://www.inkscape.org/namespaces/inkscape"
   xmlns:sodipodi="http://sodipodi.sourceforge.net/DTD/sodipodi-0.dtd"
   xmlns="http://www.w3.org/2000/svg"
   xmlns:svg="http://www.w3.org/2000/svg">
  <sodipodi:namedview
     id="namedview6083"
     pagecolor="#ffffff"
     bordercolor="#666666"
     borderopacity="1.0"
     inkscape:pageshadow="2"
     inkscape:pageopacity="0.0"
     inkscape:pagecheckerboard="0"
     inkscape:document-units="mm"
     showgrid="false"
     inkscape:zoom="0.58901465"
     inkscape:cx="368.41189"
     inkscape:cy="532.24483"
     inkscape:window-width="1440"
     inkscape:window-height="875"
     inkscape:window-x="0"
     inkscape:window-y="25"
     inkscape:window-maximized="0"
     inkscape:current-layer="layer1" />
  <defs
     id="defs6078" />
  <g
     inkscape:label="Ebene 1"
     inkscape:groupmode="layer"
     id="layer1">
    <path
       style="fill:#000000;fill-opacity:1;stroke:#000000;stroke-width:0.264583px;stroke-linecap:butt;stroke-linejoin:miter;stroke-opacity:1"
       d="m 71.723915,114.48981 c 0,0 -9.995237,29.41246 -3.089879,41.40783 6.861914,11.91989 23.400235,18.91081 37.124494,18.00833 13.97573,-0.91901 31.4771,-9.59572 35.07781,-23.13088 2.82379,-10.6147 -4.83642,-24.91802 -14.85929,-29.41109 -10.48995,-4.70245 -31.075916,-1.93008 -33.326963,8.87026 -3.432963,16.47108 2.841338,27.10537 2.841338,27.10537 0,0 4.558855,0.82746 6.866205,0.92564 2.34723,0.0999 7.03962,-0.34488 7.03962,-0.34488 0,0 -5.60912,-15.57134 -2.47719,-20.91625 4.74027,-8.08969 12.28604,-4.98087 16.5977,-1.47916 3.00873,2.44354 2.73509,7.92159 1.36549,11.54754 -1.93133,5.11307 -6.91555,9.58715 -12.21006,10.94421 -9.17946,2.35282 -22.084463,1.19062 -27.686692,-6.45224 -6.924967,-9.44741 2.695181,-35.03733 2.695181,-35.03733 z"
       id="path2305"
       sodipodi:nodetypes="caaaascacsaaaacc" />
    <path
       style="display:inline;fill:#000000;fill-opacity:1;stroke:#ffffff;stroke-width:0.7;stroke-linecap:butt;stroke-linejoin:miter;stroke-miterlimit:4;stroke-dasharray:none;stroke-opacity:1"
       d="m 93.358567,115.53498 c 0,0 -1.070741,6.76631 0.552767,9.49599 2.481628,4.17247 12.390066,7.73746 12.390066,7.73746 l -2.83202,-3.69288 6.54904,0.17585 c 0,0 -9.53122,-2.08595 -11.859065,-5.8031 -1.433746,-2.28943 2e-6,-8.08916 2e-6,-8.08916 z"
       id="path3690"
       sodipodi:nodetypes="cacccacc" />
    <path
       id="path6107"
       style="fill:#000000;stroke:#ffffff;stroke-width:0.7;stroke-opacity:1;fill-opacity:1;stroke-miterlimit:4;stroke-dasharray:none"
       d="m 136.62,106.48158 c 0,5.79387 -18.00229,10.49073 -40.209233,10.49073 -22.206941,0 -40.209233,-4.69686 -40.209229,-10.49073 2e-6,-2.89694 4.051377,-10.460782 11.327816,-12.359228 7.276439,-1.898449 17.777943,1.868498 28.881413,1.868498 11.103473,0 21.941873,-3.654648 29.218313,-1.756199 7.27644,1.898446 10.99092,9.349999 10.99092,12.246929 z"
       sodipodi:nodetypes="sssssss" />
    <path
       id="path6617-8"
       style="fill:#ffffff;stroke:#000000;stroke-width:0.469573;fill-opacity:1"
       d="m 105.99734,104.07337 a 5.9278019,10.9763 79.536162 0 0 11.87033,3.83575 5.9278019,10.9763 79.536162 0 0 9.71718,-7.82267 5.9278019,10.9763 79.536162 0 0 -11.87033,-3.835746 5.9278019,10.9763 79.536162 0 0 -9.71718,7.822666 z" />
    <path
       id="path6617"
       style="fill:#ffffff;stroke:#000000;stroke-width:0.469573;fill-opacity:1"
       d="m 86.369721,104.2931 a 10.9763,5.9278019 10.463838 0 1 -11.870337,3.83575 10.9763,5.9278019 10.463838 0 1 -9.717186,-7.82267 10.9763,5.9278019 10.463838 0 1 11.870336,-3.835753 10.9763,5.9278019 10.463838 0 1 9.717187,7.822673 z" />
    <path
       id="path1467"
       style="fill:#000000;stroke:#000000;stroke-width:0.356049;fill-opacity:1"
       d="m 73.729633,102.87792 c -3e-6,3.23259 3.27748,5.56048 3.27748,5.56048 0,0 -7.335306,-2.62054 -7.33531,-5.85314 -5e-6,-3.232602 7.33531,-5.85314 7.33531,-5.85314 0,0 -3.277476,2.913197 -3.27748,6.1458 z"
       sodipodi:nodetypes="scscs" />
    <path
       id="path1467-7"
       style="fill:#000000;fill-opacity:1;stroke:#000000;stroke-width:0.356049"
       d="m 118.992,102.3965 c 0,3.23259 -3.27748,5.56048 -3.27748,5.56048 0,0 7.33531,-2.62054 7.33531,-5.85314 0,-3.232596 -7.33531,-5.853136 -7.33531,-5.853136 0,0 3.27748,2.9132 3.27748,6.145796 z"
       sodipodi:nodetypes="scscs" />
    <path
       style="fill:#000000;fill-opacity:1;stroke:#000000;stroke-width:0.264583px;stroke-linecap:butt;stroke-linejoin:miter;stroke-opacity:1"
       d="m 101.95919,175.01408 c 0,0 4.78066,0.12357 7.14668,-0.15881 1.72187,-0.20551 5.08208,-1.1117 5.08208,-1.1117 2.75278,6.88198 4.07625,8.8407 10.16415,15.8815 -16.47639,-2.00595 -22.39291,-14.61099 -22.39291,-14.61099 z"
       id="path4047"
       sodipodi:nodetypes="caccc" />
  </g>
</svg>
