<?xml version="1.0" encoding="UTF-8" standalone="no"?>
<!-- Created with Inkscape (http://www.inkscape.org/) -->

<svg
   width="210mm"
   height="297mm"
   viewBox="0 0 210 297"
   version="1.1"
   id="svg5"
   inkscape:version="1.1.1 (3bf5ae0d25, 2021-09-20)"
   sodipodi:docname="logo_merged.svg"
   xmlns:inkscape="http://www.inkscape.org/namespaces/inkscape"
   xmlns:sodipodi="http://sodipodi.sourceforge.net/DTD/sodipodi-0.dtd"
   xmlns="http://www.w3.org/2000/svg"
   xmlns:svg="http://www.w3.org/2000/svg">
  <sodipodi:namedview
     id="namedview7"
     pagecolor="#ffffff"
     bordercolor="#666666"
     borderopacity="1.0"
     inkscape:pageshadow="2"
     inkscape:pageopacity="0.0"
     inkscape:pagecheckerboard="0"
     inkscape:document-units="mm"
     showgrid="false"
     inkscape:zoom="0.61580177"
     inkscape:cx="-221.66224"
     inkscape:cy="703.9603"
     inkscape:window-width="1640"
     inkscape:window-height="875"
     inkscape:window-x="0"
     inkscape:window-y="46"
     inkscape:window-maximized="0"
     inkscape:current-layer="layer1" />
  <defs
     id="defs2" />
  <g
     inkscape:label="Ebene 1"
     inkscape:groupmode="layer"
     id="layer1"
     style="display:inline">
    <path
       style="fill:#000000;fill-opacity:1;stroke:#000000;stroke-width:0.00012965;stroke-linecap:butt;stroke-linejoin:miter;stroke-miterlimit:4;stroke-dasharray:none;stroke-opacity:1"
       d="m 8.0498197,75.369272 c 8.5051583,-0.0385 17.5863353,-11.78659 17.5863353,-11.78659 l 9.541523,7.85773 c 0,0 -10.19069,8.34096 -27.1278583,3.92886 z"
       id="path1261"
       sodipodi:nodetypes="cccc" />
    <ellipse
       style="display:inline;fill:#000000;fill-opacity:1;stroke:#ffffff;stroke-width:0.7;stroke-miterlimit:4;stroke-dasharray:none;stroke-opacity:1"
       id="path4402-8"
       cx="41.72578"
       cy="61.244083"
       rx="26.454918"
       ry="12.265287" />
    <ellipse
       style="fill:#000000;fill-opacity:1;stroke:#ffffff;stroke-width:0.7;stroke-miterlimit:4;stroke-dasharray:none;stroke-opacity:1"
       id="path4402"
       cx="49.129021"
       cy="50.182331"
       rx="31.676874"
       ry="15.148635" />
    <path
       style="fill:#000000;fill-opacity:1;stroke:#ffffff;stroke-width:0.7;stroke-linecap:butt;stroke-linejoin:miter;stroke-miterlimit:4;stroke-dasharray:none;stroke-opacity:1"
       d="m 52.76476,44.440932 c 0,0 -1.246157,6.08173 0.158695,8.56942 2.150619,3.80829 11.108505,6.98249 11.108505,6.98249 l -2.539086,-3.33255 5.87164,0.15869 c 0,0 -8.545364,-1.88242 -10.63243,-5.23687 -1.285447,-2.06604 2e-6,-7.29987 2e-6,-7.29987 z"
       id="path3690"
       sodipodi:nodetypes="cacccacc" />
    <path
       id="path31"
       style="fill:#000000;fill-opacity:1;fill-rule:evenodd;stroke:#ffffff;stroke-width:0.7;stroke-miterlimit:4;stroke-dasharray:none;stroke-opacity:1"
       d="m 55.592938,29.652722 c -4.349221,10e-6 -9.550903,-2.63609 -13.319493,-1.66155 -3.768588,0.97453 -15.870922,-0.92706 -20.11358,-10.54616 -4.217329,7.37336 5.738034,11.34715 4.144049,13.65119 -1.593987,2.30406 -2.475431,4.83723 -2.475446,7.49627 6e-5,10.63616 12.208266,12.0184 29.605149,12.01844 17.396883,-4e-5 33.394561,-1.38228 33.394621,-12.01844 -1e-5,-2.65904 -0.88146,-5.19221 -2.47544,-7.49627 -1.59399,-2.30404 9.21787,-8.54642 3.66685,-14.29914 -3.84071,9.70901 -16.13238,11.90406 -19.900968,10.92953 -3.76859,-0.97454 -8.176521,1.92614 -12.525742,1.92613 z"
       sodipodi:nodetypes="cscccccscsc" />
    <ellipse
       style="fill:#ffffff;fill-opacity:1;stroke:#000000;stroke-width:0.263197;stroke-opacity:1"
       id="path2836"
       cy="30.062447"
       cx="50.533157"
       ry="3.5464396"
       rx="6.2907562"
       transform="rotate(12.06284)" />
    <ellipse
       style="fill:#ffffff;fill-opacity:1;stroke:#000000;stroke-width:0.257085;stroke-opacity:1"
       id="path2836-0"
       cy="53.551136"
       cx="-57.062977"
       ry="3.5394597"
       rx="6.0138216"
       transform="matrix(-0.97581275,0.21860803,0.19974718,0.97984747,0,0)" />
    <path
       style="fill:#000000;fill-opacity:1;stroke:#000000;stroke-width:0.195353px;stroke-linecap:butt;stroke-linejoin:miter;stroke-opacity:1"
       d="m 43.065795,36.333612 c 0,0 -3.32205,2.35424 -3.245707,4.05649 0.0629,1.40247 2.963472,3.10998 2.963472,3.10998 0,0 -1.224088,-1.76379 -1.270059,-2.77194 -0.07045,-1.545 1.552294,-4.39453 1.552294,-4.39453 z"
       id="path1689"
       sodipodi:nodetypes="cacac" />
    <path
       style="display:inline;fill:#000000;fill-opacity:1;stroke:#000000;stroke-width:0.195353px;stroke-linecap:butt;stroke-linejoin:miter;stroke-opacity:1"
       d="m 66.381826,36.424042 c 0,0 3.32205,2.35424 3.245707,4.05649 -0.0629,1.40247 -2.963472,3.10998 -2.963472,3.10998 0,0 1.224088,-1.76379 1.270059,-2.77194 0.07045,-1.545 -1.552294,-4.39453 -1.552294,-4.39453 z"
       id="path1689-1"
       sodipodi:nodetypes="cacac" />
    <path
       style="display:inline;fill:#000000;fill-opacity:1;stroke:#000000;stroke-width:0.00012965;stroke-linecap:butt;stroke-linejoin:miter;stroke-miterlimit:4;stroke-dasharray:none;stroke-opacity:1"
       d="m 120.11682,292.98727 c 8.50516,-0.0385 17.58633,-11.78659 17.58633,-11.78659 l 9.54153,7.85773 c 0,0 -10.19069,8.34096 -27.12786,3.92886 z"
       id="path1261-3"
       sodipodi:nodetypes="cccc" />
    <ellipse
       style="display:inline;fill:#000000;fill-opacity:1;stroke:#ffffff;stroke-width:0.7;stroke-miterlimit:4;stroke-dasharray:none;stroke-opacity:1"
       id="path4402-8-3"
       cx="153.79279"
       cy="278.86209"
       rx="26.454918"
       ry="12.265287" />
    <ellipse
       style="display:inline;fill:#000000;fill-opacity:1;stroke:#ffffff;stroke-width:0.7;stroke-miterlimit:4;stroke-dasharray:none;stroke-opacity:1"
       id="path4402-3"
       cx="161.19603"
       cy="267.80032"
       rx="31.676874"
       ry="15.148635" />
    <path
       style="display:inline;fill:#000000;fill-opacity:1;stroke:#000000;stroke-width:0.00012965;stroke-linecap:butt;stroke-linejoin:miter;stroke-miterlimit:4;stroke-dasharray:none;stroke-opacity:1"
       d="m 118.33904,195.69265 c 8.50516,-0.0385 17.58634,-11.78659 17.58634,-11.78659 l 9.54152,7.85773 c 0,0 -10.19069,8.34096 -27.12786,3.92886 z"
       id="path1261-4"
       sodipodi:nodetypes="cccc" />
    <ellipse
       style="display:inline;fill:#000000;fill-opacity:1;stroke:#ffffff;stroke-width:0.7;stroke-miterlimit:4;stroke-dasharray:none;stroke-opacity:1"
       id="path4402-8-1"
       cx="152.015"
       cy="181.56746"
       rx="26.454918"
       ry="12.265287" />
    <ellipse
       style="display:inline;fill:#000000;fill-opacity:1;stroke:#ffffff;stroke-width:0.7;stroke-miterlimit:4;stroke-dasharray:none;stroke-opacity:1"
       id="path4402-85"
       cx="159.41824"
       cy="170.50571"
       rx="31.676874"
       ry="15.148635" />
    <path
       style="display:inline;fill:#000000;fill-opacity:1;stroke:#ffffff;stroke-width:0.7;stroke-linecap:butt;stroke-linejoin:miter;stroke-miterlimit:4;stroke-dasharray:none;stroke-opacity:1"
       d="m 163.05398,164.76431 c 0,0 -1.24616,6.08173 0.1587,8.56942 2.15061,3.80829 11.1085,6.98249 11.1085,6.98249 l -2.53909,-3.33255 5.87164,0.15869 c 0,0 -8.54536,-1.88242 -10.63243,-5.23687 -1.28545,-2.06604 0,-7.29987 0,-7.29987 z"
       id="path3690-9"
       sodipodi:nodetypes="cacccacc" />
    <path
       id="path31-7"
       style="display:inline;fill:#000000;fill-opacity:1;fill-rule:evenodd;stroke:#ffffff;stroke-width:0.7;stroke-miterlimit:4;stroke-dasharray:none;stroke-opacity:1"
       d="m 165.88216,149.9761 c -4.34922,1e-5 -9.5509,-2.63609 -13.31949,-1.66155 -3.76859,0.97453 -15.87093,-0.92706 -20.11358,-10.54616 -4.21733,7.37336 5.73803,11.34715 4.14404,13.65119 -1.59398,2.30406 -2.47543,4.83723 -2.47544,7.49627 6e-5,10.63616 12.20826,12.0184 29.60515,12.01844 17.39688,-4e-5 33.39455,-1.38228 33.39461,-12.01844 -1e-5,-2.65904 -0.88146,-5.19221 -2.47544,-7.49627 -1.59399,-2.30404 9.21787,-8.54642 3.66685,-14.29914 -3.84071,9.70901 -16.13237,11.90406 -19.90096,10.92953 -3.76859,-0.97454 -8.17652,1.92614 -12.52574,1.92613 z"
       sodipodi:nodetypes="cscccccscsc" />
    <ellipse
       style="display:inline;fill:#ffffff;fill-opacity:1;stroke:#000000;stroke-width:0.263197;stroke-opacity:1"
       id="path2836-5"
       cy="124.68024"
       cx="183.53279"
       ry="3.5464396"
       rx="6.2907562"
       transform="rotate(12.06284)" />
    <ellipse
       style="display:inline;fill:#ffffff;fill-opacity:1;stroke:#000000;stroke-width:0.257085;stroke-opacity:1"
       id="path2836-0-3"
       cy="195.10066"
       cx="-141.11098"
       ry="3.5394597"
       rx="6.0138216"
       transform="matrix(-0.97581275,0.21860803,0.19974718,0.97984747,0,0)" />
    <path
       style="display:inline;fill:#000000;fill-opacity:1;stroke:#000000;stroke-width:0.195353px;stroke-linecap:butt;stroke-linejoin:miter;stroke-opacity:1"
       d="m 153.35502,156.65699 c 0,0 -3.32205,2.35424 -3.24571,4.05649 0.0629,1.40247 2.96347,3.10998 2.96347,3.10998 0,0 -1.22409,-1.76379 -1.27006,-2.77194 -0.0704,-1.545 1.5523,-4.39453 1.5523,-4.39453 z"
       id="path1689-8"
       sodipodi:nodetypes="cacac" />
    <path
       style="display:inline;fill:#000000;fill-opacity:1;stroke:#000000;stroke-width:0.195353px;stroke-linecap:butt;stroke-linejoin:miter;stroke-opacity:1"
       d="m 176.67104,156.74742 c 0,0 3.32205,2.35424 3.24571,4.05649 -0.0629,1.40247 -2.96347,3.10998 -2.96347,3.10998 0,0 1.22409,-1.76379 1.27006,-2.77194 0.0705,-1.545 -1.5523,-4.39453 -1.5523,-4.39453 z"
       id="path1689-1-8"
       sodipodi:nodetypes="cacac" />
    <path
       style="display:inline;fill:#aa0000;fill-opacity:1;stroke:#aa0000;stroke-width:0.00012965;stroke-linecap:butt;stroke-linejoin:miter;stroke-miterlimit:4;stroke-dasharray:none;stroke-opacity:1"
       d="m -277.26191,236.97006 c 8.50516,-0.0385 17.58634,-11.78659 17.58634,-11.78659 l 9.54152,7.85773 c 0,0 -10.19069,8.34096 -27.12786,3.92886 z"
       id="path1261-4-2"
       sodipodi:nodetypes="cccc" />
    <ellipse
       style="display:inline;fill:#aa0000;fill-opacity:1;stroke:#ffffff;stroke-width:0.7;stroke-miterlimit:4;stroke-dasharray:none;stroke-opacity:1"
       id="path4402-8-1-5"
       cx="-243.58595"
       cy="222.84485"
       rx="26.454918"
       ry="12.265287" />
    <ellipse
       style="display:inline;fill:#aa0000;fill-opacity:1;stroke:#ffffff;stroke-width:0.7;stroke-miterlimit:4;stroke-dasharray:none;stroke-opacity:1"
       id="path4402-85-4"
       cx="-236.18271"
       cy="211.7831"
       rx="31.676874"
       ry="15.148635" />
    <g
       id="g28504"
       transform="matrix(1.4263996,0,0,1.4297937,62.041941,-94.561905)"
       style="stroke-width:0.700233">
      <path
         style="display:inline;fill:#000000;fill-opacity:1;stroke:#ffffff;stroke-width:0.490164;stroke-linecap:butt;stroke-linejoin:miter;stroke-miterlimit:4;stroke-dasharray:none;stroke-opacity:1"
         d="m -202.94933,209.63269 c 0,0 -1.24616,6.08173 0.1587,8.56942 2.15061,3.80829 11.1085,6.98249 11.1085,6.98249 l -2.53909,-3.33255 5.87164,0.15869 c 0,0 -8.54536,-1.88242 -10.63243,-5.23687 -1.28545,-2.06604 0,-7.29987 0,-7.29987 z"
         id="path3690-9-0"
         sodipodi:nodetypes="cacccacc" />
      <path
         id="path31-7-5"
         style="display:inline;fill:#aa0000;fill-opacity:1;fill-rule:evenodd;stroke:#ffffff;stroke-width:0.490164;stroke-miterlimit:4;stroke-dasharray:none;stroke-opacity:1"
         d="m -200.12115,194.84448 c -4.34922,1e-5 -9.5509,-2.63609 -13.31949,-1.66155 -3.76859,0.97453 -15.87093,-0.92706 -20.11358,-10.54616 -4.21733,7.37336 5.73803,11.34715 4.14404,13.65119 -1.59398,2.30406 -2.47543,4.83723 -2.47544,7.49627 6e-5,10.63616 12.20826,12.0184 29.60515,12.01844 17.39688,-4e-5 33.39455,-1.38228 33.39461,-12.01844 -1e-5,-2.65904 -0.88146,-5.19221 -2.47544,-7.49627 -1.59399,-2.30404 9.21787,-8.54642 3.66685,-14.29914 -3.84071,9.70901 -16.13237,11.90406 -19.90096,10.92953 -3.76859,-0.97454 -8.17652,1.92614 -12.52574,1.92613 z"
         sodipodi:nodetypes="cscccccscsc" />
      <ellipse
         style="display:inline;fill:#ffffff;fill-opacity:1;stroke:#000000;stroke-width:0.184299;stroke-opacity:1"
         id="path2836-5-9"
         cy="245.04684"
         cx="-165.01201"
         ry="3.5464396"
         rx="6.2907562"
         transform="rotate(12.06284)" />
      <ellipse
         style="display:inline;fill:#ffffff;fill-opacity:1;stroke:#000000;stroke-width:0.18002;stroke-opacity:1"
         id="path2836-0-3-4"
         cy="158.8658"
         cx="226.54716"
         ry="3.5394597"
         rx="6.0138216"
         transform="matrix(-0.97581275,0.21860803,0.19974718,0.97984747,0,0)" />
      <path
         style="display:inline;fill:#000000;fill-opacity:1;stroke:#000000;stroke-width:0.136793px;stroke-linecap:butt;stroke-linejoin:miter;stroke-opacity:1"
         d="m -212.64829,201.52537 c 0,0 -3.32205,2.35424 -3.24571,4.05649 0.0629,1.40247 2.96347,3.10998 2.96347,3.10998 0,0 -1.22409,-1.76379 -1.27006,-2.77194 -0.0704,-1.545 1.5523,-4.39453 1.5523,-4.39453 z"
         id="path1689-8-69"
         sodipodi:nodetypes="cacac" />
      <path
         style="display:inline;fill:#000000;fill-opacity:1;stroke:#000000;stroke-width:0.136793px;stroke-linecap:butt;stroke-linejoin:miter;stroke-opacity:1"
         d="m -189.33227,201.6158 c 0,0 3.32205,2.35424 3.24571,4.05649 -0.0629,1.40247 -2.96347,3.10998 -2.96347,3.10998 0,0 1.22409,-1.76379 1.27006,-2.77194 0.0705,-1.545 -1.5523,-4.39453 -1.5523,-4.39453 z"
         id="path1689-1-8-2"
         sodipodi:nodetypes="cacac" />
    </g>
    <path
       style="fill:#000000;fill-opacity:1;stroke:#000000;stroke-width:0.264583px;stroke-linecap:butt;stroke-linejoin:miter;stroke-opacity:1"
       d="m 129.66664,36.78779 c 0,0 -9.99524,29.412459 -3.08988,41.407829 6.86191,11.91989 23.40023,18.91081 37.12449,18.00833 13.97573,-0.91901 31.4771,-9.59572 35.07781,-23.13088 2.82379,-10.6147 -4.83642,-24.918019 -14.85929,-29.411089 -10.48995,-4.70245 -31.07591,-1.93008 -33.32696,8.870259 -3.43296,16.47108 2.84134,27.10537 2.84134,27.10537 0,0 4.55885,0.82746 6.8662,0.92564 2.34723,0.0999 7.03962,-0.34488 7.03962,-0.34488 0,0 -5.60912,-15.57134 -2.47719,-20.91625 4.74027,-8.089689 12.28604,-4.98087 16.5977,-1.47916 3.00873,2.44354 2.73509,7.92159 1.36549,11.54754 -1.93133,5.11307 -6.91555,9.58715 -12.21006,10.94421 -9.17946,2.35282 -22.08446,1.19062 -27.68669,-6.45224 -6.92497,-9.44741 2.69518,-35.037329 2.69518,-35.037329 z"
       id="path2305"
       sodipodi:nodetypes="caaaascacsaaaacc" />
    <path
       style="display:inline;fill:#000000;fill-opacity:1;stroke:#ffffff;stroke-width:0.7;stroke-linecap:butt;stroke-linejoin:miter;stroke-miterlimit:4;stroke-dasharray:none;stroke-opacity:1"
       d="m 151.30129,37.83296 c 0,0 -1.07074,6.76631 0.55277,9.49599 2.48162,4.17247 12.39006,7.737459 12.39006,7.737459 l -2.83202,-3.692879 6.54904,0.17585 c 0,0 -9.53122,-2.08595 -11.85906,-5.8031 -1.43375,-2.28943 0,-8.08916 0,-8.08916 z"
       id="path3690-7"
       sodipodi:nodetypes="cacccacc" />
    <path
       id="path6107"
       style="fill:#000000;fill-opacity:1;stroke:#ffffff;stroke-width:0.7;stroke-miterlimit:4;stroke-dasharray:none;stroke-opacity:1"
       d="m 194.56272,28.77956 c 0,5.79387 -18.00229,10.49073 -40.20923,10.49073 -22.20694,0 -40.20923,-4.69686 -40.20923,-10.49073 0,-2.89694 4.05138,-10.460782 11.32782,-12.359228 7.27644,-1.898449 17.77794,1.868498 28.88141,1.868498 11.10347,0 21.94187,-3.654648 29.21831,-1.756199 7.27644,1.898446 10.99092,9.349999 10.99092,12.246929 z"
       sodipodi:nodetypes="sssssss" />
    <path
       id="path6617-8"
       style="fill:#ffffff;fill-opacity:1;stroke:#000000;stroke-width:0.469573"
       d="m 163.94006,26.37135 a 5.9278019,10.9763 79.536162 0 0 11.87033,3.83575 5.9278019,10.9763 79.536162 0 0 9.71718,-7.82267 5.9278019,10.9763 79.536162 0 0 -11.87033,-3.835746 5.9278019,10.9763 79.536162 0 0 -9.71718,7.822666 z" />
    <path
       id="path6617"
       style="fill:#ffffff;fill-opacity:1;stroke:#000000;stroke-width:0.469573"
       d="m 144.31244,26.59108 a 10.9763,5.9278019 10.463838 0 1 -11.87033,3.83575 10.9763,5.9278019 10.463838 0 1 -9.71719,-7.82267 10.9763,5.9278019 10.463838 0 1 11.87034,-3.835753 10.9763,5.9278019 10.463838 0 1 9.71718,7.822673 z" />
    <path
       id="path1467"
       style="fill:#000000;fill-opacity:1;stroke:#000000;stroke-width:0.356049"
       d="m 131.67236,25.1759 c -1e-5,3.23259 3.27748,5.56048 3.27748,5.56048 0,0 -7.33531,-2.62054 -7.33531,-5.85314 -1e-5,-3.232602 7.33531,-5.85314 7.33531,-5.85314 0,0 -3.27748,2.913197 -3.27748,6.1458 z"
       sodipodi:nodetypes="scscs" />
    <path
       id="path1467-7"
       style="fill:#000000;fill-opacity:1;stroke:#000000;stroke-width:0.356049"
       d="m 176.93472,24.69448 c 0,3.23259 -3.27748,5.56048 -3.27748,5.56048 0,0 7.33531,-2.62054 7.33531,-5.85314 0,-3.232596 -7.33531,-5.853136 -7.33531,-5.853136 0,0 3.27748,2.9132 3.27748,6.145796 z"
       sodipodi:nodetypes="scscs" />
    <path
       style="fill:#000000;fill-opacity:1;stroke:#000000;stroke-width:0.264583px;stroke-linecap:butt;stroke-linejoin:miter;stroke-opacity:1"
       d="m 159.90191,97.312059 c 0,0 4.78066,0.12357 7.14668,-0.15881 1.72187,-0.20551 5.08208,-1.1117 5.08208,-1.1117 2.75278,6.881981 4.07625,8.840701 10.16415,15.881501 -16.47639,-2.00595 -22.39291,-14.610991 -22.39291,-14.610991 z"
       id="path4047"
       sodipodi:nodetypes="caccc" />
    <path
       style="display:inline;fill:#000000;fill-opacity:1;stroke:#000000;stroke-width:0.264583px;stroke-linecap:butt;stroke-linejoin:miter;stroke-opacity:1"
       d="m 21.226117,159.65493 c 0,0 -9.99524,29.41246 -3.08988,41.40783 6.86191,11.91989 23.40023,18.91081 37.12449,18.00833 13.97573,-0.91901 31.4771,-9.59572 35.07781,-23.13088 2.82379,-10.6147 -4.83642,-24.91802 -14.85929,-29.41109 -10.48995,-4.70245 -31.07591,-1.93008 -33.32696,8.87026 -3.43296,16.47108 2.84134,27.10537 2.84134,27.10537 0,0 4.55885,0.82746 6.8662,0.92564 2.34723,0.0999 7.03962,-0.34488 7.03962,-0.34488 0,0 -5.60912,-15.57134 -2.47719,-20.91625 4.74027,-8.08969 12.28604,-4.98087 16.5977,-1.47916 3.00873,2.44354 2.73509,7.92159 1.36549,11.54754 -1.93133,5.11307 -6.91555,9.58715 -12.21006,10.94421 -9.17946,2.35282 -22.08446,1.19062 -27.68669,-6.45224 -6.92497,-9.44741 2.69518,-35.03733 2.69518,-35.03733 z"
       id="path2305-5"
       sodipodi:nodetypes="caaaascacsaaaacc" />
    <g
       id="g1427"
       transform="matrix(1.3356608,0,0,1.3402233,-54.452673,-93.425061)"
       style="stroke-width:0.747418">
      <path
         style="display:inline;fill:#000000;fill-opacity:1;stroke:#ffffff;stroke-width:0.523192;stroke-linecap:butt;stroke-linejoin:miter;stroke-miterlimit:4;stroke-dasharray:none;stroke-opacity:1"
         d="m 162.9617,266.13004 c 0,0 -0.87722,5.52978 0.45287,7.76062 2.0331,3.40995 10.15073,6.32344 10.15073,6.32344 l -2.32017,-3.01801 5.3654,0.14371 c 0,0 -7.80859,-1.70474 -9.71571,-4.74259 -1.17461,-1.87103 0,-6.61087 0,-6.61087 z"
         id="path3690-7-9"
         sodipodi:nodetypes="cacccacc" />
      <path
         id="path6107-6"
         style="display:inline;fill:#000000;fill-opacity:1;stroke:#ffffff;stroke-width:0.523192;stroke-miterlimit:4;stroke-dasharray:none;stroke-opacity:1"
         d="m 198.40425,258.73114 c 0,4.73505 -14.74863,8.57356 -32.94199,8.57356 -18.19335,0 -32.94197,-3.83851 -32.94197,-8.57356 0,-2.36753 3.31915,-8.54908 9.28047,-10.10059 5.96132,-1.55151 14.56483,1.52703 23.6615,1.52703 9.09668,0 17.9762,-2.98677 23.93752,-1.43526 5.96133,1.55151 9.00447,7.6413 9.00447,10.00882 z"
         sodipodi:nodetypes="sssssss" />
      <path
         id="path6617-8-2"
         style="display:inline;fill:#ffffff;fill-opacity:1;stroke:#000000;stroke-width:0.350967"
         d="m 173.3162,256.76303 a 4.8448957,8.9917611 79.581894 0 0 9.72494,3.13477 4.8448957,8.9917611 79.581894 0 0 7.96093,-6.39308 4.8448957,8.9917611 79.581894 0 0 -9.72493,-3.13477 4.8448957,8.9917611 79.581894 0 0 -7.96094,6.39308 z" />
      <path
         id="path6617-1"
         style="display:inline;fill:#ffffff;fill-opacity:1;stroke:#000000;stroke-width:0.350967"
         d="m 157.23599,256.94261 a 8.9917611,4.8448957 10.418106 0 1 -9.72494,3.13477 8.9917611,4.8448957 10.418106 0 1 -7.96093,-6.39309 8.9917611,4.8448957 10.418106 0 1 9.72493,-3.13477 8.9917611,4.8448957 10.418106 0 1 7.96094,6.39309 z" />
      <path
         id="path1467-78"
         style="display:inline;fill:#000000;fill-opacity:1;stroke:#000000;stroke-width:0.266117"
         d="m 146.88043,255.78605 c -1e-5,2.64184 2.68512,4.54431 2.68512,4.54431 0,0 -6.00956,-2.14164 -6.00956,-4.78349 0,-2.64185 6.00956,-4.78349 6.00956,-4.78349 0,0 -2.68512,2.38082 -2.68512,5.02267 z"
         sodipodi:nodetypes="scscs" />
      <path
         id="path1467-7-5"
         style="display:inline;fill:#000000;fill-opacity:1;stroke:#000000;stroke-width:0.266117"
         d="m 183.96226,255.3926 c 0,2.64185 -2.68512,4.54432 -2.68512,4.54432 0,0 6.00955,-2.14164 6.00955,-4.78349 0,-2.64185 -6.00955,-4.78349 -6.00955,-4.78349 0,0 2.68512,2.38082 2.68512,5.02266 z"
         sodipodi:nodetypes="scscs" />
    </g>
    <path
       style="display:inline;fill:#000000;fill-opacity:1;stroke:#000000;stroke-width:0.264583px;stroke-linecap:butt;stroke-linejoin:miter;stroke-opacity:1"
       d="m 51.461387,220.1792 c 0,0 4.78066,0.12357 7.14668,-0.15881 1.72187,-0.20551 5.08208,-1.1117 5.08208,-1.1117 2.75278,6.88198 4.07625,8.8407 10.16415,15.8815 -16.47639,-2.00595 -22.39291,-14.61099 -22.39291,-14.61099 z"
       id="path4047-7"
       sodipodi:nodetypes="caccc" />
    <g
       id="g1483">
      <path
         style="display:inline;fill:#000000;fill-opacity:1;stroke:#ffffff;stroke-width:0.7;stroke-linecap:butt;stroke-linejoin:miter;stroke-miterlimit:4;stroke-dasharray:none;stroke-opacity:1"
         d="m 50.992134,152.97773 c 0,0 -1.869856,9.14978 0.238128,12.89243 3.226977,5.72946 16.668234,10.50495 16.668234,10.50495 l -3.809888,-5.01372 8.810358,0.23874 c 0,0 -12.822258,-2.83204 -15.953894,-7.87871 -1.928809,-3.1083 0,-10.98244 0,-10.98244 z"
         id="path3690-9-3"
         sodipodi:nodetypes="cacccacc" />
      <path
         id="path31-7-1"
         style="display:inline;fill:#000000;fill-opacity:1;fill-rule:evenodd;stroke:#ffffff;stroke-width:0.7;stroke-miterlimit:4;stroke-dasharray:none;stroke-opacity:1"
         d="m 55.2358,130.72931 c -6.525977,1e-5 -14.331065,-3.96592 -19.985811,-2.49975 -5.654746,1.46615 -23.814231,-1.39474 -30.1803009,-15.86638 -6.328077,11.09299 8.6098789,17.07144 6.2181069,20.5378 -2.3917579,3.46639 -3.7143679,7.27747 -3.7143829,11.27791 9e-5,16.00179 18.3184179,18.08133 44.4223419,18.08139 26.103909,-6e-5 50.108326,-2.0796 50.108416,-18.08139 -2e-5,-4.00044 -1.32264,-7.81152 -3.714401,-11.27791 -2.39177,-3.46636 13.831371,-12.85783 5.502101,-21.51263 -5.762971,14.60692 -24.206531,17.9093 -29.861276,16.44315 -5.654746,-1.46616 -12.268817,2.89782 -18.794794,2.89781 z"
         sodipodi:nodetypes="cscccccscsc" />
      <ellipse
         style="display:inline;fill:#ffffff;fill-opacity:1;stroke:#000000;stroke-width:0.263197;stroke-opacity:1"
         id="path2836-5-8"
         cy="135.33354"
         cx="66.223236"
         ry="5.3348966"
         rx="9.4403343"
         transform="matrix(0.97780567,0.20951388,-0.20845606,0.97803173,0,0)" />
      <ellipse
         style="display:inline;fill:#ffffff;fill-opacity:1;stroke:#000000;stroke-width:0.257088;stroke-opacity:1"
         id="path2836-0-3-9"
         cy="158.42162"
         cx="-40.850079"
         ry="5.32445"
         rx="9.0248461"
         transform="matrix(-0.97568904,0.21915954,0.19924024,0.97995068,0,0)" />
      <path
         style="display:inline;fill:#000000;fill-opacity:1;stroke:#000000;stroke-width:0.195353px;stroke-linecap:butt;stroke-linejoin:miter;stroke-opacity:1"
         d="m 36.438905,140.78051 c 0,0 -4.984715,3.54188 -4.870167,6.10286 0.09438,2.10998 4.446668,4.67888 4.446668,4.67888 0,0 -1.83674,-2.65357 -1.905717,-4.1703 -0.105635,-2.32441 2.329216,-6.61144 2.329216,-6.61144 z"
         id="path1689-8-6"
         sodipodi:nodetypes="cacac" />
      <path
         style="display:inline;fill:#000000;fill-opacity:1;stroke:#000000;stroke-width:0.195353px;stroke-linecap:butt;stroke-linejoin:miter;stroke-opacity:1"
         d="m 71.424446,140.91656 c 0,0 4.984715,3.54188 4.870168,6.10286 -0.09438,2.10998 -4.446668,4.67887 -4.446668,4.67887 0,0 1.836739,-2.65356 1.905717,-4.1703 0.105784,-2.3244 -2.329217,-6.61143 -2.329217,-6.61143 z"
         id="path1689-1-8-4"
         sodipodi:nodetypes="cacac" />
    </g>
    <path
       style="display:inline;fill:#aa0000;fill-opacity:1;stroke:#000000;stroke-width:0.264583px;stroke-linecap:butt;stroke-linejoin:miter;stroke-opacity:1"
       d="m -133.76183,159.89426 c 0,0 -9.99524,29.41246 -3.08988,41.40783 6.86191,11.91989 23.40023,18.91081 37.124493,18.00833 13.97573,-0.91901 31.477098,-9.59572 35.077808,-23.13088 2.82379,-10.6147 -4.83642,-24.91802 -14.859288,-29.41109 -10.48995,-4.70245 -31.075913,-1.93008 -33.326963,8.87026 -3.43296,16.47108 2.84134,27.10537 2.84134,27.10537 0,0 4.55885,0.82746 6.8662,0.92564 2.34723,0.0999 7.039623,-0.34488 7.039623,-0.34488 0,0 -5.609123,-15.57134 -2.47719,-20.91625 4.74027,-8.08969 12.28604,-4.98087 16.5977,-1.47916 3.00873,2.44354 2.73509,7.92159 1.36549,11.54754 -1.93133,5.11307 -6.91555,9.58715 -12.21006,10.94421 -9.179463,2.35282 -22.084463,1.19062 -27.686693,-6.45224 -6.92497,-9.44741 2.69518,-35.03733 2.69518,-35.03733 z"
       id="path2305-5-7"
       sodipodi:nodetypes="caaaascacsaaaacc" />
    <path
       style="display:inline;fill:#aa0000;fill-opacity:1;stroke:#000000;stroke-width:0.264583px;stroke-linecap:butt;stroke-linejoin:miter;stroke-opacity:1"
       d="m -103.52656,220.41853 c 0,0 4.780663,0.12357 7.146683,-0.15881 1.72187,-0.20551 5.08208,-1.1117 5.08208,-1.1117 2.75278,6.88198 4.07625,8.8407 10.16415,15.8815 -16.47639,-2.00595 -22.392913,-14.61099 -22.392913,-14.61099 z"
       id="path4047-7-7"
       sodipodi:nodetypes="caccc" />
    <path
       style="display:inline;fill:#000000;fill-opacity:1;stroke:#ffffff;stroke-width:0.7;stroke-linecap:butt;stroke-linejoin:miter;stroke-miterlimit:4;stroke-dasharray:none;stroke-opacity:1"
       d="m -103.99581,153.21706 c 0,0 -1.86985,9.14978 0.23813,12.89243 3.22698,5.72946 16.668236,10.50495 16.668236,10.50495 l -3.809888,-5.01372 8.810358,0.23874 c 0,0 -12.822258,-2.83204 -15.953894,-7.87871 -1.928809,-3.1083 0,-10.98244 0,-10.98244 z"
       id="path3690-9-3-4"
       sodipodi:nodetypes="cacccacc" />
    <path
       id="path31-7-1-3"
       style="display:inline;fill:#aa0000;fill-opacity:1;fill-rule:evenodd;stroke:#ffffff;stroke-width:0.7;stroke-miterlimit:4;stroke-dasharray:none;stroke-opacity:1"
       d="m -99.75214,130.96864 c -6.52598,1e-5 -14.33107,-3.96592 -19.98581,-2.49975 -5.65475,1.46615 -23.81423,-1.39474 -30.1803,-15.86638 -6.32808,11.09299 8.60988,17.07144 6.2181,20.5378 -2.39175,3.46639 -3.71436,7.27747 -3.71438,11.27791 9e-5,16.00179 18.31842,18.08133 44.42234,18.08139 26.103913,-6e-5 50.10833,-2.0796 50.10842,-18.08139 -2e-5,-4.00044 -1.32264,-7.81152 -3.714401,-11.27791 -2.39177,-3.46636 13.831371,-12.85783 5.502101,-21.51263 -5.762971,14.60692 -24.206531,17.9093 -29.861276,16.44315 -5.654746,-1.46616 -12.268817,2.89782 -18.794794,2.89781 z"
       sodipodi:nodetypes="cscccccscsc" />
    <ellipse
       style="display:inline;fill:#ffffff;fill-opacity:1;stroke:#000000;stroke-width:0.263197;stroke-opacity:1"
       id="path2836-5-8-0"
       cy="168.0397"
       cx="-85.310089"
       ry="5.3348966"
       rx="9.4403343"
       transform="matrix(0.97780567,0.20951388,-0.20845606,0.97803173,0,0)" />
    <ellipse
       style="display:inline;fill:#ffffff;fill-opacity:1;stroke:#000000;stroke-width:0.257088;stroke-opacity:1"
       id="path2836-0-3-9-3"
       cy="124.68105"
       cx="111.10967"
       ry="5.32445"
       rx="9.0248461"
       transform="matrix(-0.97568904,0.21915954,0.19924024,0.97995068,0,0)" />
    <path
       style="display:inline;fill:#000000;fill-opacity:1;stroke:#000000;stroke-width:0.195353px;stroke-linecap:butt;stroke-linejoin:miter;stroke-opacity:1"
       d="m -118.54904,141.01984 c 0,0 -4.98471,3.54188 -4.87016,6.10286 0.0944,2.10998 4.44667,4.67888 4.44667,4.67888 0,0 -1.83674,-2.65357 -1.90572,-4.1703 -0.10564,-2.32441 2.32921,-6.61144 2.32921,-6.61144 z"
       id="path1689-8-6-0"
       sodipodi:nodetypes="cacac" />
    <path
       style="display:inline;fill:#000000;fill-opacity:1;stroke:#000000;stroke-width:0.195353px;stroke-linecap:butt;stroke-linejoin:miter;stroke-opacity:1"
       d="m -83.563494,141.15589 c 0,0 4.984715,3.54188 4.870168,6.10286 -0.09438,2.10998 -4.446668,4.67887 -4.446668,4.67887 0,0 1.836739,-2.65356 1.905717,-4.1703 0.105784,-2.3244 -2.329217,-6.61143 -2.329217,-6.61143 z"
       id="path1689-1-8-4-9"
       sodipodi:nodetypes="cacac" />
  </g>
</svg>
