<?xml version="1.0" encoding="UTF-8" standalone="no"?>
<!-- Created with Inkscape (http://www.inkscape.org/) -->

<svg
   width="210mm"
   height="297mm"
   viewBox="0 0 210 297"
   version="1.1"
   id="svg5"
   inkscape:version="1.1.2 (b8e25be8, 2022-02-05)"
   sodipodi:docname="redvyper.svg"
   xmlns:inkscape="http://www.inkscape.org/namespaces/inkscape"
   xmlns:sodipodi="http://sodipodi.sourceforge.net/DTD/sodipodi-0.dtd"
   xmlns="http://www.w3.org/2000/svg"
   xmlns:svg="http://www.w3.org/2000/svg">
  <sodipodi:namedview
     id="namedview7"
     pagecolor="#ffffff"
     bordercolor="#666666"
     borderopacity="1.0"
     inkscape:pageshadow="2"
     inkscape:pageopacity="0.0"
     inkscape:pagecheckerboard="0"
     inkscape:document-units="mm"
     showgrid="false"
     inkscape:zoom="1.4142136"
     inkscape:cx="188.0904"
     inkscape:cy="531.39075"
     inkscape:window-width="1440"
     inkscape:window-height="875"
     inkscape:window-x="0"
     inkscape:window-y="25"
     inkscape:window-maximized="0"
     inkscape:current-layer="layer1" />
  <defs
     id="defs2" />
  <g
     inkscape:label="Ebene 1"
     inkscape:groupmode="layer"
     id="layer1"
     style="display:inline">
    <path
       style="fill:#000000;stroke:#000000;stroke-width:0.00012965;stroke-linecap:butt;stroke-linejoin:miter;stroke-opacity:1;fill-opacity:1;stroke-miterlimit:4;stroke-dasharray:none"
       d="m 26.379502,166.13474 c 8.505158,-0.0385 17.586335,-11.78659 17.586335,-11.78659 l 9.541523,7.85773 c 0,0 -10.19069,8.34096 -27.127858,3.92886 z"
       id="path1261"
       sodipodi:nodetypes="cccc" />
    <ellipse
       style="display:inline;fill:#000000;stroke:#ffffff;stroke-width:0.7;stroke-opacity:1;fill-opacity:1;stroke-miterlimit:4;stroke-dasharray:none"
       id="path4402-8"
       cx="60.055462"
       cy="152.00955"
       rx="26.454918"
       ry="12.265287" />
    <ellipse
       style="fill:#000000;stroke:#ffffff;stroke-width:0.7;stroke-opacity:1;fill-opacity:1;stroke-miterlimit:4;stroke-dasharray:none"
       id="path4402"
       cx="67.458702"
       cy="140.9478"
       rx="31.676874"
       ry="15.148635" />
    <path
       style="fill:#000000;stroke:#ffffff;stroke-width:0.7;stroke-linecap:butt;stroke-linejoin:miter;stroke-opacity:1;stroke-miterlimit:4;stroke-dasharray:none;fill-opacity:1"
       d="m 71.094442,135.2064 c 0,0 -1.246157,6.08173 0.158695,8.56942 2.150619,3.80829 11.108505,6.98249 11.108505,6.98249 l -2.539086,-3.33255 5.87164,0.15869 c 0,0 -8.545364,-1.88242 -10.63243,-5.23687 -1.285447,-2.06604 2e-6,-7.29987 2e-6,-7.29987 z"
       id="path3690"
       sodipodi:nodetypes="cacccacc" />
    <path
       id="path31"
       style="fill:#000000;fill-opacity:1;fill-rule:evenodd;stroke:#ffffff;stroke-width:0.7;stroke-opacity:1;stroke-miterlimit:4;stroke-dasharray:none"
       d="m 73.92262,120.41819 c -4.349221,1e-5 -9.550903,-2.63609 -13.319493,-1.66155 -3.768588,0.97453 -15.870922,-0.92706 -20.11358,-10.54616 -4.217329,7.37336 5.738034,11.34715 4.144049,13.65119 -1.593987,2.30406 -2.475431,4.83723 -2.475446,7.49627 6e-5,10.63616 12.208266,12.0184 29.605149,12.01844 17.396883,-4e-5 33.394561,-1.38228 33.394621,-12.01844 -1e-5,-2.65904 -0.88146,-5.19221 -2.47544,-7.49627 -1.59399,-2.30404 9.21787,-8.54642 3.66685,-14.29914 -3.84071,9.70901 -16.13238,11.90406 -19.900968,10.92953 -3.76859,-0.97454 -8.176521,1.92614 -12.525742,1.92613 z"
       sodipodi:nodetypes="cscccccscsc" />
    <ellipse
       style="fill:#ffffff;fill-opacity:1;stroke:#000000;stroke-width:0.263197;stroke-opacity:1"
       id="path2836"
       cy="114.9931"
       cx="87.426666"
       ry="3.5464396"
       rx="6.2907562"
       transform="rotate(12.06284)" />
    <ellipse
       style="fill:#ffffff;fill-opacity:1;stroke:#000000;stroke-width:0.257085;stroke-opacity:1"
       id="path2836-0"
       cy="146.14548"
       cx="-56.893093"
       ry="3.5394597"
       rx="6.0138216"
       transform="matrix(-0.97581275,0.21860803,0.19974718,0.97984747,0,0)" />
    <path
       style="fill:#000000;fill-opacity:1;stroke:#000000;stroke-width:0.195353px;stroke-linecap:butt;stroke-linejoin:miter;stroke-opacity:1"
       d="m 61.395477,127.09908 c 0,0 -3.32205,2.35424 -3.245707,4.05649 0.0629,1.40247 2.963472,3.10998 2.963472,3.10998 0,0 -1.224088,-1.76379 -1.270059,-2.77194 -0.07045,-1.545 1.552294,-4.39453 1.552294,-4.39453 z"
       id="path1689"
       sodipodi:nodetypes="cacac" />
    <path
       style="display:inline;fill:#000000;fill-opacity:1;stroke:#000000;stroke-width:0.195353px;stroke-linecap:butt;stroke-linejoin:miter;stroke-opacity:1"
       d="m 84.711508,127.18951 c 0,0 3.32205,2.35424 3.245707,4.05649 -0.0629,1.40247 -2.963472,3.10998 -2.963472,3.10998 0,0 1.224088,-1.76379 1.270059,-2.77194 0.07045,-1.545 -1.552294,-4.39453 -1.552294,-4.39453 z"
       id="path1689-1"
       sodipodi:nodetypes="cacac" />
  </g>
</svg>
